<?xml version="1.0" encoding="UTF-8" standalone="no"?>
<!-- Created with Inkscape (http://www.inkscape.org/) -->

<svg
   xmlns:dc="http://purl.org/dc/elements/1.1/"
   xmlns:cc="http://creativecommons.org/ns#"
   xmlns:rdf="http://www.w3.org/1999/02/22-rdf-syntax-ns#"
   xmlns:svg="http://www.w3.org/2000/svg"
   xmlns="http://www.w3.org/2000/svg"
   xmlns:sodipodi="http://sodipodi.sourceforge.net/DTD/sodipodi-0.dtd"
   xmlns:inkscape="http://www.inkscape.org/namespaces/inkscape"
   width="744.09448819"
   height="1052.3622047"
   id="svg3390"
   version="1.1"
   inkscape:version="0.48.2 r9819"
   sodipodi:docname="New document 5">
  <defs
     id="defs3392" />
  <sodipodi:namedview
     id="base"
     pagecolor="#ffffff"
     bordercolor="#666666"
     borderopacity="1.0"
     inkscape:pageopacity="0.0"
     inkscape:pageshadow="2"
     inkscape:zoom="0.35"
     inkscape:cx="375"
     inkscape:cy="520"
     inkscape:document-units="px"
     inkscape:current-layer="layer1"
     showgrid="false"
     inkscape:window-width="1680"
     inkscape:window-height="1002"
     inkscape:window-x="1"
     inkscape:window-y="0"
     inkscape:window-maximized="0" />
  <metadata
     id="metadata3395">
    <rdf:RDF>
      <cc:Work
         rdf:about="">
        <dc:format>image/svg+xml</dc:format>
        <dc:type
           rdf:resource="http://purl.org/dc/dcmitype/StillImage" />
        <dc:title></dc:title>
      </cc:Work>
    </rdf:RDF>
  </metadata>
  <g
     inkscape:label="Layer 1"
     inkscape:groupmode="layer"
     id="layer1">
    <rect
       style="fill:#000000;fill-opacity:1;stroke:none"
       id="rect4168"
       width="740.69971"
       height="740.69971"
       x="4.6501465"
       y="162.01233"
       inkscape:export-filename="/Users/toxi/work/clj/thing/logo-1280.png"
       inkscape:export-xdpi="155.53"
       inkscape:export-ydpi="155.53" />
    <g
       id="g4224"
       transform="translate(-1695.1318,-450.59381)"
       inkscape:export-filename="/Users/toxi/work/clj/thing/logo-1280.png"
       inkscape:export-xdpi="155.53"
       inkscape:export-ydpi="155.53">
      <path
         id="rect4144"
         d="m 1877.4638,812.3622 50,0 -95.9656,250 -50,0 z"
         style="fill:#ffffff;fill-opacity:1;stroke:none"
         inkscape:connector-curvature="0" />
      <path
         id="rect4146"
         d="m 1937.4638,812.3622 50,0 -95.9656,250 -50,0 z"
         style="fill:#ffffff;fill-opacity:1;stroke:none"
         inkscape:connector-curvature="0" />
      <path
         id="rect4148"
         d="m 1959.0775,912.36219 50,0 -57.5793,150.00001 -50,0 z"
         style="fill:#ffffff;fill-opacity:1;stroke:none"
         inkscape:connector-curvature="0" />
      <path
         id="rect4150"
         d="m 2019.0775,912.36219 50,0 -57.5793,150.00001 -50,0 z"
         style="fill:#ffffff;fill-opacity:1;stroke:none"
         inkscape:connector-curvature="0" />
      <path
         id="rect4152"
         d="m 2139.0775,912.36219 50,0 -57.5793,150.00001 -50,0 z"
         style="fill:#ffffff;fill-opacity:1;stroke:none"
         inkscape:connector-curvature="0" />
      <path
         id="rect4154"
         d="m 2199.0775,912.36219 50,0 -57.5793,150.00001 -50,0 z"
         style="fill:#ffffff;fill-opacity:1;stroke:none"
         inkscape:connector-curvature="0" />
      <path
         id="rect4156"
         d="m 2259.0775,912.36219 50,0 -57.5793,150.00001 -50,0 z"
         style="fill:#ffffff;fill-opacity:1;stroke:none"
         inkscape:connector-curvature="0" />
      <path
         id="rect4158"
         d="m 2319.0775,912.36219 50,0 -95.9656,250.00001 -50,0 z"
         style="fill:#ffffff;fill-opacity:1;stroke:none"
         inkscape:connector-curvature="0" />
      <path
         transform="matrix(0.84605336,0,0,0.84605336,1167.7513,926.447)"
         d="m 1081.0802,131.68813 c 0,17.2986 -14.0233,31.3219 -31.3219,31.3219 -17.2986,0 -31.3219,-14.0233 -31.3219,-31.3219 0,-17.29861 14.0233,-31.32191 31.3219,-31.32191 17.2986,0 31.3219,14.0233 31.3219,31.32191 z"
         sodipodi:ry="31.321901"
         sodipodi:rx="31.321901"
         sodipodi:cy="131.68813"
         sodipodi:cx="1049.7583"
         id="use4160"
         style="fill:#ffffff;fill-opacity:1;stroke:none"
         sodipodi:type="arc" />
      <path
         transform="matrix(0.84605336,0,0,0.84605336,1167.7513,767.947)"
         d="m 1081.0802,131.68813 c 0,17.2986 -14.0233,31.3219 -31.3219,31.3219 -17.2986,0 -31.3219,-14.0233 -31.3219,-31.3219 0,-17.29861 14.0233,-31.32191 31.3219,-31.32191 17.2986,0 31.3219,14.0233 31.3219,31.32191 z"
         sodipodi:ry="31.321901"
         sodipodi:rx="31.321901"
         sodipodi:cy="131.68813"
         sodipodi:cx="1049.7583"
         id="use4162"
         style="fill:#ffffff;fill-opacity:1;stroke:none"
         sodipodi:type="arc" />
      <path
         transform="matrix(0.84605336,0,0,0.84605336,928.5935,767.947)"
         d="m 1081.0802,131.68813 c 0,17.2986 -14.0233,31.3219 -31.3219,31.3219 -17.2986,0 -31.3219,-14.0233 -31.3219,-31.3219 0,-17.29861 14.0233,-31.32191 31.3219,-31.32191 17.2986,0 31.3219,14.0233 31.3219,31.32191 z"
         sodipodi:ry="31.321901"
         sodipodi:rx="31.321901"
         sodipodi:cy="131.68813"
         sodipodi:cx="1049.7583"
         id="use4164"
         style="fill:#ffffff;fill-opacity:1;stroke:none"
         sodipodi:type="arc" />
      <path
         transform="matrix(0.84605336,0,0,0.84605336,1309.557,1025.947)"
         d="m 1081.0802,131.68813 c 0,17.2986 -14.0233,31.3219 -31.3219,31.3219 -17.2986,0 -31.3219,-14.0233 -31.3219,-31.3219 0,-17.29861 14.0233,-31.32191 31.3219,-31.32191 17.2986,0 31.3219,14.0233 31.3219,31.32191 z"
         sodipodi:ry="31.321901"
         sodipodi:rx="31.321901"
         sodipodi:cy="131.68813"
         sodipodi:cx="1049.7583"
         id="use4166"
         style="fill:#ffffff;fill-opacity:1;stroke:none"
         sodipodi:type="arc" />
    </g>
  </g>
</svg>
